<mxfile host="app.diagrams.net" modified="2024-03-30T07:26:35.495Z" agent="Mozilla/5.0 (Windows NT 10.0; Win64; x64) AppleWebKit/537.36 (KHTML, like Gecko) Chrome/123.0.0.0 Safari/537.36" etag="Zc-G31i3L5sQAyHGBoIw" version="24.2.1" type="device">
  <diagram name="Page-1" id="BHaeUw2jec1ACdndj3Xi">
    <mxGraphModel dx="910" dy="459" grid="1" gridSize="10" guides="1" tooltips="1" connect="1" arrows="1" fold="1" page="1" pageScale="1" pageWidth="827" pageHeight="1169" math="0" shadow="0">
      <root>
        <mxCell id="0" />
        <mxCell id="1" parent="0" />
        <mxCell id="_d0kSf7f0uNMeueQVCch-12" value="&lt;font style=&quot;font-size: 20px;&quot;&gt;Payment&lt;/font&gt;&lt;div&gt;&lt;font style=&quot;font-size: 20px;&quot;&gt;Method&lt;/font&gt;&lt;/div&gt;" style="rounded=0;whiteSpace=wrap;html=1;" vertex="1" parent="1">
          <mxGeometry x="730" y="82" width="120" height="60" as="geometry" />
        </mxCell>
        <mxCell id="_d0kSf7f0uNMeueQVCch-475" value="&lt;font style=&quot;font-size: 20px;&quot;&gt;Project&lt;/font&gt;" style="rounded=0;whiteSpace=wrap;html=1;" vertex="1" parent="1">
          <mxGeometry x="100" y="90" width="120" height="60" as="geometry" />
        </mxCell>
        <mxCell id="_d0kSf7f0uNMeueQVCch-476" value="" style="endArrow=none;html=1;rounded=0;" edge="1" parent="1">
          <mxGeometry width="50" height="50" relative="1" as="geometry">
            <mxPoint x="220" y="119.5" as="sourcePoint" />
            <mxPoint x="310" y="119.5" as="targetPoint" />
            <Array as="points">
              <mxPoint x="260" y="119.5" />
            </Array>
          </mxGeometry>
        </mxCell>
        <mxCell id="_d0kSf7f0uNMeueQVCch-477" value="&lt;font style=&quot;font-size: 20px;&quot;&gt;client&lt;/font&gt;" style="rounded=0;whiteSpace=wrap;html=1;" vertex="1" parent="1">
          <mxGeometry x="315" y="90" width="120" height="60" as="geometry" />
        </mxCell>
        <mxCell id="_d0kSf7f0uNMeueQVCch-478" value="&lt;font style=&quot;font-size: 20px;&quot;&gt;Budget&lt;/font&gt;" style="rounded=0;whiteSpace=wrap;html=1;" vertex="1" parent="1">
          <mxGeometry x="100" y="220" width="120" height="60" as="geometry" />
        </mxCell>
        <mxCell id="_d0kSf7f0uNMeueQVCch-479" value="" style="endArrow=none;html=1;rounded=0;exitX=0.5;exitY=1;exitDx=0;exitDy=0;entryX=0.5;entryY=0;entryDx=0;entryDy=0;" edge="1" parent="1" source="_d0kSf7f0uNMeueQVCch-475" target="_d0kSf7f0uNMeueQVCch-478">
          <mxGeometry width="50" height="50" relative="1" as="geometry">
            <mxPoint x="120" y="190" as="sourcePoint" />
            <mxPoint x="160" y="210" as="targetPoint" />
            <Array as="points">
              <mxPoint x="160" y="190" />
            </Array>
          </mxGeometry>
        </mxCell>
        <mxCell id="_d0kSf7f0uNMeueQVCch-480" value="N" style="text;html=1;align=center;verticalAlign=middle;resizable=0;points=[];autosize=1;strokeColor=none;fillColor=none;" vertex="1" parent="1">
          <mxGeometry x="215" y="90" width="30" height="30" as="geometry" />
        </mxCell>
        <mxCell id="_d0kSf7f0uNMeueQVCch-481" value="1" style="text;html=1;align=center;verticalAlign=middle;resizable=0;points=[];autosize=1;strokeColor=none;fillColor=none;" vertex="1" parent="1">
          <mxGeometry x="288" y="92" width="30" height="30" as="geometry" />
        </mxCell>
        <mxCell id="_d0kSf7f0uNMeueQVCch-482" value="1" style="text;html=1;align=center;verticalAlign=middle;resizable=0;points=[];autosize=1;strokeColor=none;fillColor=none;rotation=0;" vertex="1" parent="1">
          <mxGeometry x="155" y="148" width="30" height="30" as="geometry" />
        </mxCell>
        <mxCell id="_d0kSf7f0uNMeueQVCch-483" value="1" style="text;html=1;align=center;verticalAlign=middle;resizable=0;points=[];autosize=1;strokeColor=none;fillColor=none;" vertex="1" parent="1">
          <mxGeometry x="155" y="188" width="30" height="30" as="geometry" />
        </mxCell>
        <mxCell id="_d0kSf7f0uNMeueQVCch-484" value="&lt;font style=&quot;font-size: 20px;&quot;&gt;payment&lt;/font&gt;" style="rounded=0;whiteSpace=wrap;html=1;" vertex="1" parent="1">
          <mxGeometry x="525" y="92" width="120" height="60" as="geometry" />
        </mxCell>
        <mxCell id="_d0kSf7f0uNMeueQVCch-485" value="" style="endArrow=none;html=1;rounded=0;" edge="1" parent="1">
          <mxGeometry width="50" height="50" relative="1" as="geometry">
            <mxPoint x="645" y="121.5" as="sourcePoint" />
            <mxPoint x="735" y="121.5" as="targetPoint" />
            <Array as="points">
              <mxPoint x="685" y="121.5" />
            </Array>
          </mxGeometry>
        </mxCell>
        <mxCell id="_d0kSf7f0uNMeueQVCch-486" value="&lt;font style=&quot;font-size: 20px;&quot;&gt;Payment&lt;/font&gt;&lt;div&gt;&lt;font style=&quot;font-size: 20px;&quot;&gt;Method&lt;/font&gt;&lt;/div&gt;" style="rounded=0;whiteSpace=wrap;html=1;" vertex="1" parent="1">
          <mxGeometry x="740" y="92" width="120" height="60" as="geometry" />
        </mxCell>
        <mxCell id="_d0kSf7f0uNMeueQVCch-487" value="N" style="text;html=1;align=center;verticalAlign=middle;resizable=0;points=[];autosize=1;strokeColor=none;fillColor=none;" vertex="1" parent="1">
          <mxGeometry x="640" y="92" width="30" height="30" as="geometry" />
        </mxCell>
        <mxCell id="_d0kSf7f0uNMeueQVCch-488" value="1" style="text;html=1;align=center;verticalAlign=middle;resizable=0;points=[];autosize=1;strokeColor=none;fillColor=none;" vertex="1" parent="1">
          <mxGeometry x="713" y="94" width="30" height="30" as="geometry" />
        </mxCell>
        <mxCell id="_d0kSf7f0uNMeueQVCch-489" value="" style="endArrow=none;html=1;rounded=0;exitX=0.5;exitY=0;exitDx=0;exitDy=0;" edge="1" parent="1" source="_d0kSf7f0uNMeueQVCch-475">
          <mxGeometry width="50" height="50" relative="1" as="geometry">
            <mxPoint x="155" y="80" as="sourcePoint" />
            <mxPoint x="580" y="90" as="targetPoint" />
            <Array as="points">
              <mxPoint x="160" y="50" />
              <mxPoint x="380" y="50" />
              <mxPoint x="490" y="50" />
              <mxPoint x="550" y="50" />
              <mxPoint x="580" y="50" />
            </Array>
          </mxGeometry>
        </mxCell>
        <mxCell id="_d0kSf7f0uNMeueQVCch-490" value="&lt;font style=&quot;font-size: 20px;&quot;&gt;Employee&lt;/font&gt;" style="rounded=0;whiteSpace=wrap;html=1;" vertex="1" parent="1">
          <mxGeometry x="510" y="222" width="120" height="60" as="geometry" />
        </mxCell>
        <mxCell id="_d0kSf7f0uNMeueQVCch-491" value="" style="endArrow=none;html=1;rounded=0;" edge="1" parent="1">
          <mxGeometry width="50" height="50" relative="1" as="geometry">
            <mxPoint x="631" y="249.5" as="sourcePoint" />
            <mxPoint x="721" y="249.5" as="targetPoint" />
            <Array as="points">
              <mxPoint x="671" y="249.5" />
            </Array>
          </mxGeometry>
        </mxCell>
        <mxCell id="_d0kSf7f0uNMeueQVCch-492" value="&lt;font style=&quot;font-size: 20px;&quot;&gt;Task&lt;/font&gt;" style="rounded=0;whiteSpace=wrap;html=1;" vertex="1" parent="1">
          <mxGeometry x="726" y="220" width="120" height="60" as="geometry" />
        </mxCell>
        <mxCell id="_d0kSf7f0uNMeueQVCch-493" value="1" style="text;html=1;align=center;verticalAlign=middle;resizable=0;points=[];autosize=1;strokeColor=none;fillColor=none;" vertex="1" parent="1">
          <mxGeometry x="626" y="220" width="30" height="30" as="geometry" />
        </mxCell>
        <mxCell id="_d0kSf7f0uNMeueQVCch-494" value="N" style="text;html=1;align=center;verticalAlign=middle;resizable=0;points=[];autosize=1;strokeColor=none;fillColor=none;" vertex="1" parent="1">
          <mxGeometry x="699" y="222" width="30" height="30" as="geometry" />
        </mxCell>
        <mxCell id="_d0kSf7f0uNMeueQVCch-495" value="1" style="text;html=1;align=center;verticalAlign=middle;resizable=0;points=[];autosize=1;strokeColor=none;fillColor=none;" vertex="1" parent="1">
          <mxGeometry x="155" y="68" width="30" height="30" as="geometry" />
        </mxCell>
        <mxCell id="_d0kSf7f0uNMeueQVCch-496" value="N" style="text;html=1;align=center;verticalAlign=middle;resizable=0;points=[];autosize=1;strokeColor=none;fillColor=none;" vertex="1" parent="1">
          <mxGeometry x="555" y="68" width="30" height="30" as="geometry" />
        </mxCell>
        <mxCell id="_d0kSf7f0uNMeueQVCch-497" value="&lt;font style=&quot;font-size: 20px;&quot;&gt;Material&lt;/font&gt;" style="rounded=0;whiteSpace=wrap;html=1;" vertex="1" parent="1">
          <mxGeometry x="360" y="220" width="120" height="60" as="geometry" />
        </mxCell>
        <mxCell id="_d0kSf7f0uNMeueQVCch-498" value="" style="endArrow=none;html=1;rounded=0;entryX=0.92;entryY=1.033;entryDx=0;entryDy=0;entryPerimeter=0;exitX=0;exitY=0.667;exitDx=0;exitDy=0;exitPerimeter=0;" edge="1" parent="1" source="_d0kSf7f0uNMeueQVCch-497">
          <mxGeometry width="50" height="50" relative="1" as="geometry">
            <mxPoint x="320" y="270" as="sourcePoint" />
            <mxPoint x="200.4000000000001" y="152.00000000000003" as="targetPoint" />
            <Array as="points">
              <mxPoint x="290" y="260" />
              <mxPoint x="290" y="200" />
              <mxPoint x="200" y="200.02" />
            </Array>
          </mxGeometry>
        </mxCell>
        <mxCell id="_d0kSf7f0uNMeueQVCch-499" value="1" style="text;html=1;align=center;verticalAlign=middle;resizable=0;points=[];autosize=1;strokeColor=none;fillColor=none;" vertex="1" parent="1">
          <mxGeometry x="195" y="148" width="30" height="30" as="geometry" />
        </mxCell>
        <mxCell id="_d0kSf7f0uNMeueQVCch-500" value="N" style="text;html=1;align=center;verticalAlign=middle;resizable=0;points=[];autosize=1;strokeColor=none;fillColor=none;" vertex="1" parent="1">
          <mxGeometry x="325" y="228" width="30" height="30" as="geometry" />
        </mxCell>
        <mxCell id="_d0kSf7f0uNMeueQVCch-501" value="&lt;font style=&quot;font-size: 20px;&quot;&gt;Expense&lt;/font&gt;" style="rounded=0;whiteSpace=wrap;html=1;" vertex="1" parent="1">
          <mxGeometry x="112" y="323" width="120" height="77" as="geometry" />
        </mxCell>
        <mxCell id="_d0kSf7f0uNMeueQVCch-502" value="" style="endArrow=none;html=1;rounded=0;" edge="1" parent="1">
          <mxGeometry width="50" height="50" relative="1" as="geometry">
            <mxPoint x="110" y="370" as="sourcePoint" />
            <mxPoint x="100" y="120" as="targetPoint" />
            <Array as="points">
              <mxPoint x="90" y="370" />
              <mxPoint x="70" y="370" />
              <mxPoint x="70" y="250" />
              <mxPoint x="70" y="120" />
            </Array>
          </mxGeometry>
        </mxCell>
        <mxCell id="_d0kSf7f0uNMeueQVCch-503" value="1" style="text;html=1;align=center;verticalAlign=middle;resizable=0;points=[];autosize=1;strokeColor=none;fillColor=none;" vertex="1" parent="1">
          <mxGeometry x="75" y="118" width="30" height="30" as="geometry" />
        </mxCell>
        <mxCell id="_d0kSf7f0uNMeueQVCch-504" value="N" style="text;html=1;align=center;verticalAlign=middle;resizable=0;points=[];autosize=1;strokeColor=none;fillColor=none;" vertex="1" parent="1">
          <mxGeometry x="82" y="345" width="30" height="30" as="geometry" />
        </mxCell>
        <mxCell id="_d0kSf7f0uNMeueQVCch-505" value="&lt;font style=&quot;font-size: 20px;&quot;&gt;Role&lt;/font&gt;" style="rounded=0;whiteSpace=wrap;html=1;" vertex="1" parent="1">
          <mxGeometry x="377" y="444" width="120" height="60" as="geometry" />
        </mxCell>
        <mxCell id="_d0kSf7f0uNMeueQVCch-506" value="" style="endArrow=none;html=1;rounded=0;" edge="1" parent="1">
          <mxGeometry width="50" height="50" relative="1" as="geometry">
            <mxPoint x="498" y="471.5" as="sourcePoint" />
            <mxPoint x="588" y="471.5" as="targetPoint" />
            <Array as="points">
              <mxPoint x="538" y="471.5" />
            </Array>
          </mxGeometry>
        </mxCell>
        <mxCell id="_d0kSf7f0uNMeueQVCch-507" value="&lt;font style=&quot;font-size: 20px;&quot;&gt;User&lt;/font&gt;" style="rounded=0;whiteSpace=wrap;html=1;" vertex="1" parent="1">
          <mxGeometry x="593" y="442" width="120" height="60" as="geometry" />
        </mxCell>
        <mxCell id="_d0kSf7f0uNMeueQVCch-508" value="1" style="text;html=1;align=center;verticalAlign=middle;resizable=0;points=[];autosize=1;strokeColor=none;fillColor=none;" vertex="1" parent="1">
          <mxGeometry x="497" y="442" width="30" height="30" as="geometry" />
        </mxCell>
        <mxCell id="_d0kSf7f0uNMeueQVCch-509" value="N" style="text;html=1;align=center;verticalAlign=middle;resizable=0;points=[];autosize=1;strokeColor=none;fillColor=none;" vertex="1" parent="1">
          <mxGeometry x="566" y="444" width="30" height="30" as="geometry" />
        </mxCell>
        <mxCell id="_d0kSf7f0uNMeueQVCch-510" value="" style="endArrow=none;html=1;rounded=0;entryX=0;entryY=0.167;entryDx=0;entryDy=0;entryPerimeter=0;" edge="1" parent="1" target="_d0kSf7f0uNMeueQVCch-475">
          <mxGeometry width="50" height="50" relative="1" as="geometry">
            <mxPoint x="90" y="460" as="sourcePoint" />
            <mxPoint x="100" y="95" as="targetPoint" />
            <Array as="points">
              <mxPoint x="90" y="460" />
              <mxPoint x="40" y="460" />
              <mxPoint x="42" y="220" />
              <mxPoint x="40" y="100" />
            </Array>
          </mxGeometry>
        </mxCell>
        <mxCell id="_d0kSf7f0uNMeueQVCch-511" value="&lt;font style=&quot;font-size: 20px;&quot;&gt;Design&lt;/font&gt;" style="rounded=0;whiteSpace=wrap;html=1;" vertex="1" parent="1">
          <mxGeometry x="90" y="430" width="120" height="60" as="geometry" />
        </mxCell>
        <mxCell id="_d0kSf7f0uNMeueQVCch-512" value="&lt;font style=&quot;font-size: 20px;&quot;&gt;Temporary&amp;nbsp;&lt;/font&gt;&lt;div&gt;&lt;font style=&quot;font-size: 20px;&quot;&gt;Salary&lt;/font&gt;&lt;/div&gt;" style="rounded=0;whiteSpace=wrap;html=1;" vertex="1" parent="1">
          <mxGeometry x="367" y="552" width="120" height="60" as="geometry" />
        </mxCell>
        <mxCell id="_d0kSf7f0uNMeueQVCch-513" value="&lt;font style=&quot;font-size: 20px;&quot;&gt;Temporary&amp;nbsp;&lt;/font&gt;&lt;div&gt;&lt;font style=&quot;font-size: 20px;&quot;&gt;Employee&lt;/font&gt;&lt;/div&gt;" style="rounded=0;whiteSpace=wrap;html=1;" vertex="1" parent="1">
          <mxGeometry x="609" y="552" width="120" height="60" as="geometry" />
        </mxCell>
        <mxCell id="_d0kSf7f0uNMeueQVCch-514" value="&lt;span style=&quot;font-size: 20px;&quot;&gt;Account&lt;/span&gt;" style="rounded=0;whiteSpace=wrap;html=1;" vertex="1" parent="1">
          <mxGeometry x="82" y="530" width="120" height="60" as="geometry" />
        </mxCell>
        <mxCell id="_d0kSf7f0uNMeueQVCch-515" value="" style="endArrow=none;html=1;rounded=0;" edge="1" parent="1">
          <mxGeometry width="50" height="50" relative="1" as="geometry">
            <mxPoint x="489" y="582" as="sourcePoint" />
            <mxPoint x="604" y="582" as="targetPoint" />
          </mxGeometry>
        </mxCell>
        <mxCell id="_d0kSf7f0uNMeueQVCch-516" value="1" style="text;html=1;align=center;verticalAlign=middle;resizable=0;points=[];autosize=1;strokeColor=none;fillColor=none;" vertex="1" parent="1">
          <mxGeometry x="65" y="458" width="30" height="30" as="geometry" />
        </mxCell>
        <mxCell id="_d0kSf7f0uNMeueQVCch-517" value="1" style="text;html=1;align=center;verticalAlign=middle;resizable=0;points=[];autosize=1;strokeColor=none;fillColor=none;" vertex="1" parent="1">
          <mxGeometry x="75" y="78" width="30" height="30" as="geometry" />
        </mxCell>
        <mxCell id="_d0kSf7f0uNMeueQVCch-518" value="1" style="text;html=1;align=center;verticalAlign=middle;resizable=0;points=[];autosize=1;strokeColor=none;fillColor=none;" vertex="1" parent="1">
          <mxGeometry x="579" y="552" width="30" height="30" as="geometry" />
        </mxCell>
        <mxCell id="_d0kSf7f0uNMeueQVCch-519" value="1" style="text;html=1;align=center;verticalAlign=middle;resizable=0;points=[];autosize=1;strokeColor=none;fillColor=none;" vertex="1" parent="1">
          <mxGeometry x="491" y="550" width="30" height="30" as="geometry" />
        </mxCell>
        <mxCell id="_d0kSf7f0uNMeueQVCch-520" value="" style="endArrow=none;html=1;rounded=0;entryX=1;entryY=0.5;entryDx=0;entryDy=0;" edge="1" parent="1" target="_d0kSf7f0uNMeueQVCch-514">
          <mxGeometry width="50" height="50" relative="1" as="geometry">
            <mxPoint x="232" y="360" as="sourcePoint" />
            <mxPoint x="300" y="570" as="targetPoint" />
            <Array as="points">
              <mxPoint x="280" y="360" />
              <mxPoint x="280" y="470" />
              <mxPoint x="280" y="560" />
            </Array>
          </mxGeometry>
        </mxCell>
        <mxCell id="_d0kSf7f0uNMeueQVCch-521" value="N" style="text;html=1;align=center;verticalAlign=middle;resizable=0;points=[];autosize=1;strokeColor=none;fillColor=none;" vertex="1" parent="1">
          <mxGeometry x="225" y="358" width="30" height="30" as="geometry" />
        </mxCell>
        <mxCell id="_d0kSf7f0uNMeueQVCch-522" value="1" style="text;html=1;align=center;verticalAlign=middle;resizable=0;points=[];autosize=1;strokeColor=none;fillColor=none;" vertex="1" parent="1">
          <mxGeometry x="202" y="530" width="30" height="30" as="geometry" />
        </mxCell>
        <mxCell id="_d0kSf7f0uNMeueQVCch-523" value="" style="endArrow=none;html=1;rounded=0;exitX=0.75;exitY=1;exitDx=0;exitDy=0;entryX=0.006;entryY=1.067;entryDx=0;entryDy=0;entryPerimeter=0;" edge="1" parent="1" target="_d0kSf7f0uNMeueQVCch-525">
          <mxGeometry width="50" height="50" relative="1" as="geometry">
            <mxPoint x="607" y="282" as="sourcePoint" />
            <mxPoint x="614" y="440" as="targetPoint" />
            <Array as="points" />
          </mxGeometry>
        </mxCell>
        <mxCell id="_d0kSf7f0uNMeueQVCch-524" value="1" style="text;html=1;align=center;verticalAlign=middle;resizable=0;points=[];autosize=1;strokeColor=none;fillColor=none;" vertex="1" parent="1">
          <mxGeometry x="600" y="282" width="30" height="30" as="geometry" />
        </mxCell>
        <mxCell id="_d0kSf7f0uNMeueQVCch-525" value="1" style="text;html=1;align=center;verticalAlign=middle;resizable=0;points=[];autosize=1;strokeColor=none;fillColor=none;" vertex="1" parent="1">
          <mxGeometry x="610" y="410" width="30" height="30" as="geometry" />
        </mxCell>
        <mxCell id="_d0kSf7f0uNMeueQVCch-526" value="&lt;span style=&quot;font-size: 20px;&quot;&gt;Invoice&amp;nbsp;&lt;/span&gt;&lt;div&gt;&lt;span style=&quot;font-size: 20px;&quot;&gt;Config&lt;/span&gt;&lt;/div&gt;" style="rounded=0;whiteSpace=wrap;html=1;" vertex="1" parent="1">
          <mxGeometry x="377" y="312" width="120" height="60" as="geometry" />
        </mxCell>
        <mxCell id="_d0kSf7f0uNMeueQVCch-527" value="" style="endArrow=none;html=1;rounded=0;exitX=0.75;exitY=1;exitDx=0;exitDy=0;entryX=0;entryY=0.5;entryDx=0;entryDy=0;" edge="1" parent="1" target="_d0kSf7f0uNMeueQVCch-526">
          <mxGeometry width="50" height="50" relative="1" as="geometry">
            <mxPoint x="225" y="258" as="sourcePoint" />
            <mxPoint x="290" y="320" as="targetPoint" />
            <Array as="points">
              <mxPoint x="270" y="258" />
              <mxPoint x="270" y="340" />
            </Array>
          </mxGeometry>
        </mxCell>
        <mxCell id="_d0kSf7f0uNMeueQVCch-528" value="1" style="text;html=1;align=center;verticalAlign=middle;resizable=0;points=[];autosize=1;strokeColor=none;fillColor=none;" vertex="1" parent="1">
          <mxGeometry x="215" y="228" width="30" height="30" as="geometry" />
        </mxCell>
        <mxCell id="_d0kSf7f0uNMeueQVCch-529" value="1" style="text;html=1;align=center;verticalAlign=middle;resizable=0;points=[];autosize=1;strokeColor=none;fillColor=none;" vertex="1" parent="1">
          <mxGeometry x="355" y="318" width="30" height="30" as="geometry" />
        </mxCell>
      </root>
    </mxGraphModel>
  </diagram>
</mxfile>
